<svg width="108" height="48" viewBox="0 0 108 48" fill="none" xmlns="http://www.w3.org/2000/svg">
<g clip-path="url(#clip0_1_1523)">
<path d="M49.1848 42.1946C49.1848 45.5774 46.4876 48.3193 43.1605 48.3193C39.8337 48.3193 37.1367 45.5774 37.1367 42.1946C37.1367 38.8124 39.8337 36.0706 43.1605 36.0706C46.4876 36.0706 49.1848 38.8128 49.1848 42.1946Z" fill="#4C62B7"/>
<path d="M25.8926 30.4319L29.1233 27.1473C30.3582 25.7115 31.1124 23.8369 31.1124 21.7794C31.1124 17.2698 27.5161 13.614 23.0805 13.6138C18.6442 13.614 15.0483 17.2698 15.0483 21.7794C15.0479 24.0344 15.9472 26.076 17.4011 27.5544L11.721 33.3284C8.81392 30.3725 7.01597 26.2898 7.01597 21.7794C7.01597 12.7596 14.2079 5.44796 23.0805 5.44796C31.9524 5.44796 39.1444 12.7596 39.1444 21.7794C39.1444 24.8034 38.3329 27.6328 36.9243 30.0616L39.8383 33.0241C41.9361 29.7993 43.1608 25.9353 43.1608 21.7794C43.1608 10.5048 34.1704 1.36443 23.0805 1.36443C11.9903 1.36443 3 10.5048 3 21.7794C3 33.0546 11.9903 42.1943 23.0805 42.1943C27.1679 42.1943 30.9679 40.9495 34.1401 38.8171L25.8926 30.4319Z" fill="#4C62B7"/>
<path d="M71.3045 34.7786C71.3045 35.1518 71.1843 35.4606 70.9447 35.7046C70.7045 35.9488 70.4151 36.0706 70.0764 36.0706H64.4849C64.2584 36.0706 64.0255 35.999 63.7859 35.855C63.5457 35.7118 63.3974 35.5394 63.3405 35.3386L62.6631 33.9602C61.3927 34.7932 60.101 35.4392 58.7871 35.898C57.4742 36.357 56.013 36.5874 54.4031 36.5874C51.6635 36.5874 49.6092 35.8336 48.2401 34.3262C46.8697 32.8189 46.1855 30.6301 46.1855 27.7587V12.5568C46.1855 12.2124 46.3128 11.9182 46.5668 11.674C46.8213 11.4304 47.1174 11.308 47.4563 11.308H54.6997C55.0385 11.308 55.3355 11.4304 55.5893 11.674C55.8438 11.9182 55.9707 12.2124 55.9707 12.5568V25.864C55.9707 27.7587 56.5068 28.7063 57.5803 28.7063C57.8063 28.7063 58.0951 28.6705 58.4488 28.5985C58.8015 28.5271 59.2038 28.4049 59.6554 28.2325H59.6131C59.9804 28.0605 60.326 27.9095 60.6512 27.7805C60.9758 27.6509 61.2791 27.5151 61.5622 27.3715V12.5568C61.5622 12.2124 61.6889 11.9182 61.9435 11.674C62.1972 11.4304 62.4939 11.308 62.8326 11.308H70.0764C70.4151 11.308 70.7045 11.4304 70.9447 11.674C71.1843 11.9182 71.3045 12.2124 71.3045 12.5568V34.7786Z" fill="#4C62B7"/>
<path d="M74.3107 36.0708C73.9999 36.0708 73.7453 35.9412 73.5482 35.6828C73.3501 35.4246 73.252 35.123 73.252 34.7788V11.9542C73.252 11.6096 73.3501 11.3082 73.5482 11.0498C73.7453 10.7912 73.9999 10.6622 74.3107 10.6622H80.2835C80.4243 10.6622 80.6012 10.6984 80.813 10.7698C81.0247 10.842 81.2295 10.9352 81.4272 11.0498C81.6245 11.165 81.7939 11.3012 81.9353 11.4588C82.0766 11.617 82.1472 11.7818 82.1472 11.9542V34.7788C82.1472 35.123 82.0478 35.4246 81.8507 35.6828C81.6528 35.9412 81.4126 36.0708 81.1307 36.0708H74.3107Z" fill="#4C62B7"/>
<path d="M104.555 11.3512C104.894 11.3512 105.184 11.4738 105.424 11.7172C105.663 11.9614 105.784 12.2701 105.784 12.6431V18.2419L97.481 27.6297H104.979C105.317 27.6297 105.614 27.7589 105.868 28.0177C106.122 28.2757 106.25 28.5771 106.25 28.9217V34.7788C106.25 35.152 106.122 35.4608 105.868 35.7048C105.614 35.949 105.317 36.0708 104.979 36.0708H85.324C84.9853 36.0708 84.6953 35.949 84.4557 35.7048C84.2153 35.4608 84.0957 35.152 84.0957 34.7788V29.4387L92.3978 19.7918H85.9175C85.5786 19.7918 85.2886 19.6626 85.0492 19.4046C84.8088 19.1458 84.6886 18.8447 84.6886 18.4998V12.6431C84.6886 12.2701 84.8088 11.9614 85.0492 11.7172C85.2886 11.4738 85.5786 11.3512 85.9175 11.3512H104.555Z" fill="#4C62B7"/>
<path d="M82.2175 4.9124C82.2175 7.44966 80.1949 9.50635 77.6995 9.50635C75.2036 9.50635 73.181 7.44966 73.1816 4.9124C73.181 2.37576 75.2036 0.319489 77.6995 0.319489C80.1949 0.319489 82.2175 2.37576 82.2175 4.9124Z" fill="#4C62B7"/>
</g>
<defs>
<clipPath id="clip0_1_1523">
<rect width="108" height="48" fill="white" transform="matrix(1 0 0 -1 0 48)"/>
</clipPath>
</defs>
</svg>
