<svg width="32" height="32" viewBox="0 0 32 32" fill="none" xmlns="http://www.w3.org/2000/svg">
<path d="M19.7089 14.6661C19.5982 14.6661 19.4862 14.6381 19.3862 14.5834L16.0009 12.7114L12.6142 14.5834C12.3915 14.7074 12.1169 14.6927 11.9075 14.5447C11.6995 14.3981 11.5929 14.1447 11.6329 13.8927L12.2875 9.88341L9.52355 7.04875C9.34889 6.87008 9.28889 6.60875 9.36889 6.37141C9.44888 6.13408 9.65288 5.96208 9.89955 5.92475L13.6942 5.34475L15.3969 1.71675C15.6169 1.24741 16.3835 1.24741 16.6035 1.71675L18.3062 5.34475L22.1009 5.92475C22.3475 5.96208 22.5529 6.13541 22.6315 6.37141C22.7102 6.60741 22.6515 6.87008 22.4769 7.04875L19.7115 9.88208L20.3662 13.8914C20.4075 14.1434 20.3009 14.3967 20.0915 14.5434C19.9782 14.6247 19.8435 14.6661 19.7089 14.6661ZM16.0009 11.2821C16.1115 11.2821 16.2235 11.3101 16.3235 11.3647L18.8302 12.7501L18.3422 9.76341C18.3089 9.55408 18.3755 9.34208 18.5235 9.19008L20.6169 7.04341L17.7542 6.60608C17.5342 6.57275 17.3462 6.43141 17.2515 6.23008L16.0009 3.56875L14.7502 6.23275C14.6555 6.43408 14.4675 6.57541 14.2475 6.60875L11.3849 7.04608L13.4782 9.19275C13.6262 9.34475 13.6929 9.55675 13.6595 9.76608L13.1715 12.7527L15.6782 11.3674C15.7782 11.3101 15.8902 11.2821 16.0009 11.2821Z" fill="#009EDD"/>
<path d="M11.7083 27.9997C11.5976 27.9997 11.4856 27.9717 11.3856 27.917L8.00027 26.045L4.6136 27.917C4.39093 28.041 4.11493 28.025 3.90693 27.8784C3.69893 27.7317 3.59227 27.4784 3.63227 27.2264L4.28693 23.217L1.5216 20.3837C1.34693 20.205 1.28693 19.9437 1.36693 19.7064C1.44693 19.469 1.65093 19.297 1.8976 19.2597L5.69227 18.6797L7.39493 15.0517C7.61493 14.5824 8.3816 14.5824 8.6016 15.0517L10.3043 18.6797L14.0989 19.2597C14.3456 19.297 14.5509 19.4704 14.6296 19.7064C14.7083 19.9424 14.6496 20.205 14.4749 20.3837L11.7096 23.217L12.3643 27.2264C12.4056 27.4784 12.2989 27.7317 12.0896 27.8784C11.9776 27.9584 11.8429 27.9997 11.7083 27.9997ZM8.00027 24.6157C8.11093 24.6157 8.22293 24.6437 8.32293 24.6984L10.8296 26.0837L10.3416 23.097C10.3083 22.8877 10.3749 22.6757 10.5229 22.5237L12.6163 20.377L9.7536 19.9397C9.5336 19.9064 9.3456 19.765 9.25093 19.5637L8.00027 16.9024L6.7496 19.5664C6.65493 19.7677 6.46693 19.909 6.24693 19.9424L3.38427 20.3797L5.4776 22.5264C5.6256 22.6784 5.69227 22.8904 5.65893 23.0997L5.17093 26.0864L7.6776 24.701C7.7776 24.6437 7.8896 24.6157 8.00027 24.6157Z" fill="#009EDD"/>
<path d="M27.7083 27.9997C27.5976 27.9997 27.4856 27.9717 27.3856 27.917L24.0003 26.045L20.6136 27.917C20.3909 28.041 20.1149 28.025 19.9069 27.8784C19.6989 27.7317 19.5923 27.4784 19.6323 27.2264L20.2869 23.217L17.5216 20.3837C17.3469 20.205 17.2869 19.9437 17.3669 19.7064C17.4469 19.469 17.6509 19.297 17.8976 19.2597L21.6923 18.6797L23.3949 15.0517C23.6149 14.5824 24.3816 14.5824 24.6016 15.0517L26.3043 18.6797L30.0989 19.2597C30.3456 19.297 30.5509 19.4704 30.6296 19.7064C30.7083 19.9424 30.6496 20.205 30.4749 20.3837L27.7096 23.217L28.3643 27.2264C28.4056 27.4784 28.2989 27.7317 28.0896 27.8784C27.9776 27.9584 27.8429 27.9997 27.7083 27.9997ZM24.0003 24.6157C24.1109 24.6157 24.2229 24.6437 24.3229 24.6984L26.8296 26.0837L26.3416 23.097C26.3083 22.8877 26.3749 22.6757 26.5229 22.5237L28.6163 20.377L25.7536 19.9397C25.5336 19.9064 25.3456 19.765 25.2509 19.5637L24.0003 16.9024L22.7496 19.5664C22.6549 19.7677 22.4669 19.909 22.2469 19.9424L19.3843 20.3797L21.4776 22.5264C21.6256 22.6784 21.6923 22.8904 21.6589 23.0997L21.1709 26.0864L23.6776 24.701C23.7776 24.6437 23.8896 24.6157 24.0003 24.6157Z" fill="#009EDD"/>
</svg>
