<svg width="32" height="32" viewBox="0 0 32 32" fill="none" xmlns="http://www.w3.org/2000/svg">
<path d="M32 16C32 7.15698 24.844 0 16 0C7.15698 0 0 7.15601 0 16C0 24.7646 7.09619 32 16 32C24.8672 32 32 24.8049 32 16ZM16 1.875C23.7886 1.875 30.125 8.21143 30.125 16C30.125 18.8491 29.2776 21.5876 27.7061 23.9072C21.3955 17.1191 10.616 17.1069 4.29395 23.9072C2.72241 21.5876 1.875 18.8491 1.875 16C1.875 8.21143 8.21143 1.875 16 1.875ZM5.46338 25.4062C11.0742 19.1128 20.9272 19.1143 26.5364 25.4062C20.9067 31.7046 11.0955 31.7065 5.46338 25.4062Z" fill="#009EDD"/>
</svg>
