<svg width="32" height="32" viewBox="0 0 32 32" fill="none" xmlns="http://www.w3.org/2000/svg">
<path d="M29.9655 7.06125L26.6067 3.7025C26.1185 3.21431 25.3271 3.21431 24.839 3.7025C24.3508 4.19069 24.3508 4.98213 24.839 5.47025L25.6345 6.26575L24.0031 7.89712C21.8795 6.1255 19.2973 5.056 16.543 4.80706V2.5H17.668C18.3583 2.5 18.918 1.94037 18.918 1.25C18.918 0.559625 18.3583 0 17.668 0H12.918C12.2276 0 11.668 0.559625 11.668 1.25C11.668 1.94037 12.2276 2.5 12.918 2.5H14.043V4.80706C7.18522 5.42681 1.66797 11.1855 1.66797 18.375C1.66797 25.9051 7.76178 32 15.293 32C22.8231 32 28.918 25.9062 28.918 18.375C28.918 15.1556 27.8082 12.1071 25.7708 9.66488L27.4022 8.0335L28.1977 8.829C28.6858 9.31713 29.4773 9.31719 29.9655 8.829C30.4536 8.34088 30.4536 7.54944 29.9655 7.06125ZM15.293 29.5C9.15866 29.5 4.16797 24.5093 4.16797 18.375C4.16797 12.2407 9.15866 7.25 15.293 7.25C21.4273 7.25 26.418 12.2407 26.418 18.375C26.418 24.5093 21.4273 29.5 15.293 29.5ZM21.7882 18.375C21.7882 19.0654 21.2285 19.625 20.5382 19.625H15.293C14.6027 19.625 14.043 19.0654 14.043 18.375V11.0203C14.043 10.3299 14.6027 9.77031 15.293 9.77031C15.9834 9.77031 16.543 10.3299 16.543 11.0203V17.125H20.5382C21.2285 17.125 21.7882 17.6846 21.7882 18.375Z" fill="#009EDD"/>
</svg>
