<svg width="32" height="32" viewBox="0 0 32 32" fill="none" xmlns="http://www.w3.org/2000/svg">
<path d="M28.25 2.5H26.75V0H24.25V2.5H7.75V0H5.25V2.5H3.75C1.68225 2.5 0 4.18225 0 6.25V28.25C0 30.3177 1.68225 32 3.75 32H21.5316L32 21.129V6.25C32 4.18225 30.3177 2.5 28.25 2.5ZM22.25 27.6498V23.125C22.25 22.4357 22.8107 21.875 23.5 21.875H27.8109L22.25 27.6498ZM29.5 19.375H23.5C21.4323 19.375 19.75 21.0573 19.75 23.125V29.5H3.75C3.06075 29.5 2.5 28.9393 2.5 28.25V11.75H29.5V19.375ZM29.5 9.25H2.5V6.25C2.5 5.56075 3.06075 5 3.75 5H5.25V7.5H7.75V5H24.25V7.5H26.75V5H28.25C28.9393 5 29.5 5.56075 29.5 6.25V9.25Z" fill="#009EDD"/>
</svg>
