<svg width="32" height="32" viewBox="0 0 32 32" fill="none" xmlns="http://www.w3.org/2000/svg">
<path d="M31.8869 15.8684L25.8147 3.25516C25.5448 2.69336 24.8858 2.43693 24.3021 2.65794C23.4484 2.9633 22.7408 3.14888 22.0687 3.24167C20.1626 3.50283 18.128 3.10029 16.3414 2.10964C14.1037 0.822731 11.5649 0.296363 8.99552 0.588227C6.75777 0.840277 4.67895 1.69394 2.93215 3.06925L2.76411 2.72441C2.92337 2.48552 3.01616 2.19804 3.01616 1.89301C3.01616 1.06162 2.33964 0.384766 1.50825 0.384766C0.67652 0.384766 0 1.06162 0 1.89301C0 2.69775 0.632318 3.35234 1.42423 3.40093L14.8379 31.2897C14.9661 31.5596 15.2357 31.7145 15.5144 31.7145C15.6251 31.7145 15.7354 31.6922 15.8417 31.6393C16.2176 31.4577 16.3725 31.0113 16.1956 30.6351L10.0435 17.8805C13.4049 15.09 18.1061 14.6564 21.9361 16.8324C21.958 16.8456 21.9759 16.8591 21.9979 16.8723C23.3823 17.6638 24.9567 18.1416 26.5489 18.2519C26.7875 18.2698 27.022 18.2742 27.2609 18.2742C28.6186 18.2742 29.9852 18.0134 31.241 17.5046C31.5508 17.3807 31.7941 17.1287 31.9135 16.8237C32.0373 16.5095 32.0282 16.1603 31.8869 15.8684ZM27.0928 16.7751L25.1601 12.715C25.2661 12.7193 25.3724 12.7193 25.4786 12.7193C26.4956 12.7193 27.5129 12.5601 28.4813 12.2551L30.3921 16.2177C29.313 16.6114 28.1986 16.797 27.0928 16.7751ZM17.8405 14.0062L15.9082 9.95523C17.5045 10.0926 19.088 10.57 20.5429 11.4058C20.574 11.4237 20.6003 11.4368 20.6313 11.4547L22.533 15.4392C21.0693 14.6345 19.477 14.1523 17.8405 14.0062ZM9.13251 6.12961C10.5966 5.61674 12.1578 5.41327 13.7011 5.53272L15.7621 9.85367C14.2143 9.74299 12.6619 9.95084 11.1978 10.4641L9.13251 6.12961ZM15.594 3.41881C15.594 3.41881 15.5984 3.41881 15.5984 3.4232L15.6028 3.42758C16.0981 3.7019 16.6113 3.93607 17.133 4.13076L18.4553 6.90803C16.9785 6.06347 15.373 5.58131 13.7541 5.4487L12.1932 2.17172C13.3651 2.38395 14.515 2.79965 15.594 3.41881ZM18.6632 7.11587C19.8971 7.77923 21.2815 8.18177 22.6835 8.27456C22.7719 8.27928 22.8647 8.28367 22.9531 8.28806L25.0184 12.6222C23.528 12.5513 22.0508 12.1356 20.7022 11.3838L18.6632 7.11587ZM22.2678 4.73237C22.9841 4.63486 23.7227 4.44928 24.5808 4.15303L26.3144 7.7573C25.2354 8.10214 24.1209 8.25263 23.0152 8.21281L21.3922 4.812C21.6841 4.7985 21.9759 4.77218 22.2678 4.73237ZM7.28414 2.45447L9.01306 6.07663C7.70861 6.54564 6.47907 7.25759 5.39562 8.20404L3.59112 4.46244C4.70122 3.53387 5.95708 2.8614 7.28414 2.45447ZM7.55374 12.6974C8.62841 11.751 9.85357 11.0434 11.1536 10.5744L13.0465 14.537C11.7242 14.9662 10.4859 15.6208 9.37579 16.4829L7.55374 12.6974Z" fill="#009EDD"/>
</svg>
